Coordinates
version=1
nRows=11
nColumns=40
inDegrees=yes

Units are S.I. units (second, meters, Newtons, ...)
Angles are in degrees.

endheader
time	pelvis_tilt	pelvis_list	pelvis_rotation	pelvis_tx	pelvis_ty	pelvis_tz	hip_flexion_r	hip_adduction_r	hip_rotation_r	knee_angle_r	knee_angle_r_beta	ankle_angle_r	subtalar_angle_r	mtp_angle_r	hip_flexion_l	hip_adduction_l	hip_rotation_l	knee_angle_l	knee_angle_l_beta	ankle_angle_l	subtalar_angle_l	mtp_angle_l	lumbar_extension	lumbar_bending	lumbar_rotation	arm_flex_r	arm_add_r	arm_rot_r	elbow_flex_r	pro_sup_r	wrist_flex_r	wrist_dev_r	arm_flex_l	arm_add_l	arm_rot_l	elbow_flex_l	pro_sup_l	wrist_flex_l	wrist_dev_l
     43.88250000	    -12.55344511	     -6.71377430	     -2.00635857	      0.98243596	      0.90873824	      0.44608538	     13.86723153	     -0.41333212	     -9.23532734	     39.20456638	     39.20456638	     14.38869605	     -7.24683265	     -4.28977635	     35.98025888	     -7.95978822	      2.14689861	     31.97954194	     31.97954194	     11.48011111	    -11.94485531	      8.47999732	    -10.54195625	      2.09106849	      4.97417688	     35.89072062	    -11.45535924	      5.95753901	    112.24912594	     43.47027855	      0.00000000	      0.00000000	     -3.43118477	     -8.41358709	      0.73589647	     34.47991985	     44.00365915	      0.00000000	      0.00000000
     43.89400000	    -12.63579945	     -6.79443085	     -2.10661155	      0.98168208	      0.91113055	      0.44456014	     15.50296568	     -0.51157983	     -8.78791439	     42.41428886	     42.41428886	     13.04223935	    -10.46284922	     -3.61096091	     35.06695011	     -8.20967444	      1.39182311	     31.18812513	     31.18812513	     11.91252210	    -10.70478310	      8.08775265	    -10.47708511	      2.16869766	      4.72822421	     34.56104136	    -11.13867052	      5.84920681	    108.37614718	     43.63045776	      0.00000000	      0.00000000	     -2.94216454	     -8.57995438	     -1.22201094	     36.10949914	     44.32299129	      0.00000000	      0.00000000
     43.90550000	    -12.69027499	     -6.52920680	     -2.13086651	      0.98078177	      0.91348378	      0.44267112	     17.20107664	     -1.32395026	     -8.92668633	     45.81859131	     45.81859131	     12.04155189	    -12.50870173	     -3.26983240	     34.01775362	     -7.97547437	      0.67415239	     30.16707852	     30.16707852	     12.08436648	     -9.95095745	      8.07243332	    -10.60248264	      1.86164857	      4.60180952	     32.66433270	    -11.26703935	      6.26870852	    106.50271121	     43.67835488	      0.00000000	      0.00000000	     -1.87226965	     -8.93515566	     -1.80550498	     36.94234635	     44.42576151	      0.00000000	      0.00000000
     43.91700000	    -12.73855517	     -6.50642673	     -2.17271832	      0.97984042	      0.91567431	      0.44107980	     19.01412511	     -1.69229455	     -8.73716576	     49.41919108	     49.41919108	     12.34821661	    -14.41629379	      1.09951141	     33.01276354	     -8.00928669	      0.02549790	     29.20317817	     29.20317817	     12.08821207	     -9.12900758	      7.24487998	    -10.56127943	      1.82479621	      3.04888554	     32.48213607	    -10.52429727	      8.11878979	    100.68842925	     43.93879049	      0.00000000	      0.00000000	     -2.46920457	     -8.70439097	     -7.17930132	     40.07253046	     45.23591043	      0.00000000	      0.00000000
     43.92850000	    -12.77586199	     -6.37402456	     -2.17581476	      0.97882089	      0.91774274	      0.43938717	     20.69144285	     -2.30321744	     -8.72941966	     52.64664213	     52.64664213	     11.55986103	    -16.34365306	      1.58057060	     32.02074288	     -7.86405157	     -0.54554903	     28.28011243	     28.28011243	     12.27777358	     -8.43976927	      7.23153413	    -10.62439066	      1.69958062	      3.22464363	     30.63569631	    -10.99674063	      8.24991149	     98.35096558	     44.01388101	      0.00000000	      0.00000000	     -1.13602976	     -9.05777615	     -7.44704365	     40.84913817	     45.29946504	      0.00000000	      0.00000000
     43.94000000	    -12.78893277	     -6.20927447	     -2.20658096	      0.97785451	      0.91956674	      0.43765762	     22.36780000	     -2.97157523	     -8.62020801	     55.85377268	     55.85377268	     11.07668590	    -17.69097207	      2.23262782	     31.03204044	     -7.65627727	     -1.05101843	     27.43868017	     27.43868017	     12.49753861	     -7.89669453	      7.19145100	    -10.63011044	      1.61145942	      3.41046378	     28.85687526	    -11.51416526	      8.42479991	     95.59050434	     44.09853756	      0.00000000	      0.00000000	      0.07613028	     -9.45294286	     -7.66751735	     41.75571318	     45.35387488	      0.00000000	      0.00000000
     43.95150000	    -12.73143653	     -6.23667159	     -2.16212189	      0.97678432	      0.92119896	      0.43600036	     24.09886824	     -3.36518771	     -8.41883531	     59.26596429	     59.26596429	     12.46279836	    -18.02401977	      8.16640026	     30.08391141	     -7.57772209	     -1.28516048	     26.72718404	     26.72718404	     12.52032859	     -7.58012733	      6.61344830	    -10.64405525	      1.74028136	      2.16980243	     28.83883828	    -10.88407395	      9.82330709	     89.20856790	     44.33526098	      0.00000000	      0.00000000	     -0.07109418	    -10.05317237	     -8.62869772	     44.43847251	     45.57379717	      0.00000000	      0.00000000
     43.96300000	    -12.72683180	     -6.13760180	     -2.18134632	      0.97571094	      0.92246945	      0.43432671	     25.73810485	     -3.96575325	     -8.21897201	     62.19078746	     62.19078746	     12.11420429	    -18.52583665	      8.38482572	     29.21505221	     -7.36443900	     -1.51949415	     26.09970922	     26.09970922	     12.76464538	     -7.38539946	      6.61479340	    -10.71810555	      1.73420276	      2.53167004	     27.07388404	    -11.72937172	     10.00361000	     86.73036397	     44.41046824	      0.00000000	      0.00000000	      1.29556135	    -10.34194453	     -8.78467073	     45.43368713	     45.62353380	      0.00000000	      0.00000000
     43.97450000	    -12.62436040	     -6.16941432	     -2.14252817	      0.97466768	      0.92357218	      0.43278838	     27.31843632	     -4.27850422	     -7.85937089	     65.06532031	     65.06532031	     12.66482699	    -18.68679594	     11.38799914	     28.33815972	     -7.22311784	     -1.47025584	     25.61449940	     25.61449940	     12.87438822	     -7.51681988	      6.25546665	    -10.75943822	      1.91513782	      1.84976486	     26.64044186	    -11.54938269	     11.01090923	     81.22343540	     44.61302495	      0.00000000	      0.00000000	      1.61935904	    -11.03517322	     -8.89245178	     47.82505257	     45.76494958	      0.00000000	      0.00000000
     43.98600000	    -12.57473245	     -6.13623476	     -2.17453090	      0.97360829	      0.92429100	      0.43133565	     28.88881827	     -4.65191997	     -7.45352345	     67.59197438	     67.59197438	     12.32355766	    -18.83704036	     11.43172195	     27.55711804	     -7.04481017	     -1.46384739	     25.23928733	     25.23928733	     13.19190093	     -7.63021522	      6.22314962	    -10.83068014	      2.04261040	      2.33186386	     24.92697598	    -12.47472846	     11.16409516	     78.49166334	     44.69726823	      0.00000000	      0.00000000	      3.06296048	    -11.30006534	     -8.95943670	     49.01370730	     45.81110560	      0.00000000	      0.00000000
     43.99750000	    -12.46004174	     -6.18040377	     -2.19409683	      0.97256098	      0.92481128	      0.43003620	     30.38056406	     -4.85971390	     -7.00535053	     69.90195457	     69.90195457	     12.20611817	    -18.87993248	     12.23616633	     26.76363604	     -6.90575035	     -1.22084137	     24.95076068	     24.95076068	     13.43013117	     -8.07877318	      6.01903533	    -10.88838681	      2.22881602	      1.97817963	     24.23711954	    -12.25009013	     11.35224928	     73.15711664	     44.88454159	      0.00000000	      0.00000000	      3.63090002	    -12.06940209	     -8.42184718	     51.03713863	     45.84490571	      0.00000000	      0.00000000
